<?xml version="1.0" standalone="no"?>
<!DOCTYPE svg PUBLIC "-//W3C//DTD SVG 20010904//EN"
 "http://www.w3.org/TR/2001/REC-SVG-20010904/DTD/svg10.dtd">
<svg version="1.0" xmlns="http://www.w3.org/2000/svg"
 width="1536.000000pt" height="1024.000000pt" viewBox="0 0 1536.000000 1024.000000"
 preserveAspectRatio="xMidYMid meet">

<g transform="translate(0.000000,1024.000000) scale(0.100000,-0.100000)"
fill="#000000" stroke="none">
<path d="M6780 7350 c-435 -39 -806 -340 -919 -748 -40 -146 -43 -217 -39
-1172 l3 -915 27 -97 c105 -382 380 -659 765 -770 78 -22 78 -22 1013 -26 976
-3 1010 -2 1155 40 386 112 688 457 745 853 8 57 10 350 8 1020 l-3 940 -27
96 c-107 392 -419 680 -828 766 -64 14 -197 16 -945 18 -478 2 -908 -1 -955
-5z m1024 -520 c109 -28 190 -73 266 -150 112 -113 159 -242 160 -437 l0 -103
130 0 c139 0 182 -10 228 -53 52 -48 49 -29 151 -877 81 -677 78 -626 51 -688
-13 -31 -39 -67 -63 -87 -79 -68 -32 -65 -1050 -65 -632 0 -931 3 -956 11 -53
16 -111 59 -146 108 -48 68 -48 63 70 1081 25 212 50 403 56 425 15 56 54 104
103 126 33 15 66 19 174 19 l132 0 0 121 c0 181 30 276 124 391 72 89 200 163
321 188 72 14 170 10 249 -10z"/>
<path d="M7565 6687 c-71 -19 -130 -52 -185 -103 -88 -82 -129 -198 -130 -361
l0 -83 418 0 417 0 -3 102 c-5 176 -52 285 -162 372 -89 71 -241 102 -355 73z"/>
<path d="M7250 5937 c0 -59 -3 -68 -26 -86 -15 -12 -34 -21 -44 -21 -10 0 -29
9 -44 21 -23 18 -26 28 -26 80 l0 59 -124 0 c-91 0 -126 -4 -135 -13 -12 -15
-46 -284 -116 -908 -48 -434 -51 -470 -35 -500 27 -50 1 -49 977 -49 706 0
913 3 933 13 13 7 31 24 40 39 13 25 10 65 -39 480 -70 598 -109 900 -120 918
-6 12 -36 16 -135 20 l-126 5 0 -61 c0 -69 -12 -91 -55 -100 -22 -4 -38 0 -58
16 -24 19 -27 28 -27 81 l0 59 -404 0 c-222 0 -411 3 -420 6 -14 5 -16 -4 -16
-59z"/>
</g>
</svg>
