<?xml version="1.0" encoding="UTF-8"?>
<svg version="1.1" xmlns="http://www.w3.org/2000/svg" width="1024" height="1024">
<path d="M0 0 C337.92 0 675.84 0 1024 0 C1024 337.92 1024 675.84 1024 1024 C686.08 1024 348.16 1024 0 1024 C0 686.08 0 348.16 0 0 Z " fill="#FEFEFE" transform="translate(0,0)"/>
<path d="M0 0 C3.77907038 0.00900326 7.55811166 0.00035326 11.33718204 -0.00586212 C18.70271827 -0.01525795 26.0681552 -0.00883344 33.43368393 0.00340082 C42.03519158 0.01714671 50.63667665 0.01537216 59.2381925 0.01326749 C74.59347481 0.01009147 89.94871044 0.02166806 105.30397892 0.04133332 C120.16336835 0.06035814 135.02270318 0.06741217 149.88210392 0.06184113 C166.12272695 0.05577013 182.3633261 0.05598252 198.60394716 0.06732696 C200.33838463 0.06853409 202.07282209 0.06974007 203.80725956 0.07094491 C205.08686652 0.07185021 205.08686652 0.07185021 206.39232412 0.07277381 C212.37232368 0.07663533 218.35231429 0.07626633 224.33231449 0.07435906 C231.62450549 0.07222731 238.91664894 0.07753561 246.2088266 0.09197261 C249.9212851 0.09916658 253.63367472 0.10333677 257.34613895 0.09872925 C285.62238683 0.06787742 285.62238683 0.06787742 299.07155704 2.37751496 C299.99939754 2.52073528 300.92723804 2.6639556 301.88319492 2.81151593 C331.67115633 7.44606437 359.78191056 19.69758196 384.07155704 37.37751496 C384.6719379 37.80435578 385.27231876 38.2311966 385.89089298 38.67097199 C401.60600543 49.91563461 416.24685082 64.36154847 427.07155704 80.37751496 C427.53046329 81.04621613 427.98936954 81.7149173 428.46218204 82.40388215 C445.53388906 107.52849307 455.9792524 134.50983645 461.07155704 164.37751496 C461.24152756 165.28448422 461.41149807 166.19145347 461.5866192 167.12590665 C462.06468261 170.33142046 462.19803696 173.3325465 462.2001915 176.5712167 C462.20502817 178.41449328 462.20502817 178.41449328 462.20996255 180.29500777 C462.20849154 181.65046742 462.20692384 183.00592697 462.20526981 184.36138642 C462.20713874 185.80780469 462.20943977 187.25422246 462.21213514 188.70063943 C462.21824987 192.67148388 462.21811991 196.64230727 462.21694076 200.61315536 C462.21673666 204.89763371 462.22225654 209.18210531 462.22699833 213.46658051 C462.23530466 221.86092191 462.2380532 230.25525629 462.23861071 238.64960145 C462.23908606 245.47665765 462.24114181 252.30371153 462.24431133 259.13076699 C462.25311939 278.49814433 462.2577307 297.86551613 462.25698086 317.23289549 C462.25692092 318.79902924 462.25692092 318.79902924 462.25685978 320.39680207 C462.25679846 321.96485517 462.25679846 321.96485517 462.2567359 323.56458611 C462.25632983 340.48991355 462.26588918 357.41521869 462.27999815 374.34053969 C462.29437968 391.73056449 462.30126729 409.12057843 462.30040437 426.51060933 C462.30007292 436.2690794 462.30279699 446.02752613 462.31358242 455.78599083 C462.32271103 464.09861757 462.32484349 472.4112104 462.318073 480.72383999 C462.31481912 484.96059618 462.31470983 489.19728741 462.32342625 493.43403733 C462.33134304 497.32236094 462.32980754 501.21056863 462.32114211 505.0988896 C462.31961839 506.49600744 462.32138007 507.89313417 462.32700219 509.29024153 C462.46596821 546.31404208 449.81545473 582.17825358 427.07155704 611.37751496 C426.41413517 612.25665558 425.75671329 613.13579621 425.07936954 614.04157746 C398.77877564 647.91510502 360.59653246 671.09153545 318.69655704 679.75251496 C317.94962589 679.90824982 317.20269474 680.06398468 316.43312931 680.22443879 C304.30221175 682.5138104 291.7856364 682.52647642 279.48355961 682.52468598 C278.08116047 682.52799694 276.67876227 682.53172502 275.27636522 682.53582746 C271.46865202 682.54571476 267.66095455 682.54954241 263.85323036 682.55221677 C259.72824541 682.55615956 255.60327248 682.56573425 251.47829533 682.57442963 C241.54293427 682.59407691 231.60757237 682.60424255 221.67219678 682.61315742 C217.92054942 682.61667362 214.16890289 682.62081929 210.41725622 682.62499708 C193.84498754 682.64344906 177.27271882 682.65919689 160.70044136 682.66689503 C156.65609645 682.66880446 152.61175154 682.67072487 148.56740665 682.67268097 C147.56238499 682.67316471 146.55736333 682.67364845 145.52188646 682.67414685 C129.25307151 682.68244159 112.98433021 682.70777643 96.71554739 682.74026165 C79.96365135 682.77343563 63.21179264 682.79135286 46.4598636 682.79453927 C37.07399884 682.79669418 27.68824167 682.80529293 18.30240917 682.83100045 C10.30790145 682.85284885 2.31352753 682.86068889 -5.68100666 682.85103367 C-9.74889911 682.84653029 -13.8165163 682.84813981 -17.88436985 682.86779511 C-64.31448588 683.07932125 -108.04896357 672.4606056 -143.92844296 641.37751496 C-144.73281796 640.68271027 -145.53719296 639.98790558 -146.36594296 639.27204621 C-148.92539169 637.01253287 -151.43370615 634.70822472 -153.92844296 632.37751496 C-154.79211483 631.57958527 -155.65578671 630.78165558 -156.54563046 629.95954621 C-179.43258671 608.0345055 -198.1177203 576.50895862 -204.01882648 545.15736115 C-204.56310337 542.27112062 -205.13500184 539.39928822 -205.74194431 536.52491486 C-208.77261727 521.11487416 -208.35809678 505.49252153 -208.32061696 489.86074364 C-208.31375591 485.61798816 -208.3243422 481.37526801 -208.33255672 477.13251984 C-208.34582189 468.84621003 -208.34304875 460.55998224 -208.3343188 452.27366936 C-208.32751403 445.53276508 -208.32663754 438.79188361 -208.32989025 432.05097687 C-208.33034995 431.08766048 -208.33080965 430.12434409 -208.33128328 429.1318363 C-208.33224256 427.17422433 -208.3332152 425.21661237 -208.33420105 423.25900042 C-208.3427338 404.94849322 -208.33295413 386.63803124 -208.31679995 368.32753146 C-208.30339871 352.65276375 -208.3057274 336.97806272 -208.31955624 321.30329621 C-208.33564955 303.05351776 -208.34191003 284.80377885 -208.33271945 266.5539943 C-208.33176391 264.60401389 -208.33082079 262.65403347 -208.32989025 260.70405304 C-208.32942742 259.74489275 -208.3289646 258.78573245 -208.32848775 257.79750669 C-208.32590909 251.07306774 -208.33024446 244.34865409 -208.33732891 237.62421906 C-208.34578594 229.41740197 -208.34337614 221.21067083 -208.32748668 213.00386345 C-208.31966008 208.82522971 -208.31641516 204.64673873 -208.32643414 200.46810639 C-208.36212911 184.24314431 -208.38740136 168.31353931 -204.92844296 152.37751496 C-204.69704805 151.29081009 -204.46565315 150.20410523 -204.22724628 149.08446991 C-203.657955 146.53113632 -203.0090149 144.02133903 -202.30344296 141.50251496 C-202.05183407 140.59670685 -201.80022518 139.69089875 -201.54099178 138.75764191 C-189.78590115 98.28889527 -163.9787945 62.07347826 -129.92844296 37.37751496 C-129.36641171 36.96582062 -128.80438046 36.55412629 -128.22531796 36.12995636 C-89.56320435 8.14204442 -46.84682641 -0.15350764 0 0 Z " fill="#1F1F1F" transform="translate(384.9284429550171,170.62248504161835)"/>
<path d="M0 0 C2.08460756 0.00314202 4.16776598 -0.02030344 6.25219727 -0.0456543 C33.29454767 -0.17530872 56.46177771 10.58971202 75.41821289 29.31567383 C76.38114258 30.17032227 76.38114258 30.17032227 77.36352539 31.04223633 C92.47813745 44.75083797 102.0711609 67.43600667 104.41821289 87.31567383 C104.54455987 90.53418046 104.53518173 93.74744989 104.51586914 96.96801758 C104.51374672 98.31821739 104.51374672 98.31821739 104.51158142 99.69569397 C104.50601949 102.5482222 104.49347416 105.40066964 104.48071289 108.25317383 C104.47569297 110.19653206 104.47113092 112.13989154 104.46704102 114.08325195 C104.45606255 118.82742333 104.43882442 123.57153492 104.41821289 128.31567383 C104.97007767 128.30679138 105.52194244 128.29790894 106.0905304 128.28875732 C111.88267561 128.19962393 117.67462311 128.13966877 123.46728516 128.09594727 C125.62329026 128.07594692 127.77924193 128.04873759 129.93505859 128.01391602 C133.05067201 127.9648853 136.1655626 127.94258869 139.28149414 127.92504883 C140.23091385 127.90440369 141.18033356 127.88375854 142.15852356 127.86248779 C153.13272198 127.8588844 162.58387765 131.55769663 170.41821289 139.31567383 C177.76670029 148.2560655 179.87115746 157.5669724 181.17993164 168.81176758 C181.33165329 170.04521912 181.48337494 171.27867065 181.63969421 172.54949951 C182.05181675 175.91480747 182.45519371 179.28094433 182.85466766 182.6477623 C183.27781643 186.19653438 183.71199584 189.74395556 184.14526367 193.29150391 C184.77958053 198.49297631 185.41024326 203.69486936 186.03668594 208.89729595 C187.12733095 217.95195785 188.24282465 227.00333528 189.37225533 236.05323601 C189.91779824 240.42577412 190.46137021 244.79855779 191.00524426 249.17130375 C191.43772321 252.64798175 191.87072484 256.12459247 192.30502319 259.6010437 C193.95756313 272.84153816 195.55318518 286.07194936 196.75584412 299.36158752 C197.40203054 306.42260443 198.32275342 313.42577686 199.35571289 320.44067383 C201.02776705 332.17225979 202.42580851 343.91351057 203.69555664 355.69458008 C204.42674806 362.4704213 205.22623281 369.23719794 206.04321289 376.00317383 C206.16639893 377.02443359 206.28958496 378.04569336 206.41650391 379.09790039 C206.5330835 380.06050781 206.64966309 381.02311523 206.76977539 382.01489258 C206.87990967 382.92932129 206.99004395 383.84375 207.10351562 384.78588867 C207.29682087 386.33982887 207.49985186 387.89264219 207.71923828 389.44311523 C208.46126859 394.75204697 208.6016606 399.96665432 208.60571289 405.31567383 C208.61795898 406.16645508 208.63020508 407.01723633 208.64282227 407.89379883 C208.6691887 419.35440945 205.30279517 429.45413223 197.48071289 438.00317383 C186.28041385 448.58436086 172.87331697 451.61812107 157.9460144 451.58982849 C156.56742695 451.59428446 155.18884206 451.59959969 153.81026089 451.60569721 C150.03162723 451.61984478 146.25307595 451.62154112 142.47441959 451.62110031 C138.39516571 451.6227514 134.31594549 451.63582341 130.23670959 451.64729309 C121.32124678 451.67012016 112.40580781 451.67806131 103.49031973 451.68311954 C97.91997645 451.68637938 92.34964007 451.69290361 86.77930069 451.70012093 C71.34657705 451.71968426 55.91385981 451.7360899 40.48112297 451.73899746 C39.49398936 451.73918503 38.50685574 451.7393726 37.48980898 451.73956585 C35.48877819 451.7399321 33.4877474 451.74029579 31.48671661 451.74065696 C30.49344632 451.74083978 29.50017603 451.74102259 28.47680664 451.74121094 C27.48231924 451.74139149 26.48783184 451.74157204 25.46320845 451.74175806 C9.35455858 451.74529853 -6.75395751 451.7723142 -22.862561 451.80970883 C-39.41414417 451.84782325 -55.96566102 451.86715517 -72.51728904 451.86745697 C-81.80513263 451.86804085 -91.09281663 451.87648809 -100.38061905 451.90545464 C-108.29038989 451.93001053 -116.19994295 451.93722311 -124.10974164 451.92220711 C-128.14184075 451.91505524 -132.17351019 451.91582058 -136.20556068 451.93861771 C-139.90459484 451.95933065 -143.60287236 451.95649433 -147.30189942 451.93574286 C-149.25741753 451.93064021 -151.21295371 451.94993271 -153.16837132 451.97040457 C-166.37128429 451.84611167 -177.82378035 447.28454163 -187.58178711 438.31567383 C-198.29226489 425.9710933 -200.4700356 414.31459104 -199.58178711 398.31567383 C-199.21097656 394.75525088 -198.71807763 391.21551834 -198.21850586 387.67114258 C-196.76649541 376.96145145 -195.55804487 366.24023039 -194.44692993 355.490448 C-193.92088608 350.40670126 -193.38387886 345.32411082 -192.84741211 340.24145508 C-192.68744499 338.72389366 -192.68744499 338.72389366 -192.52424622 337.17567444 C-191.52224044 327.69675628 -190.47300973 318.22364082 -189.39428711 308.75317383 C-189.31574493 308.05703979 -189.23720276 307.36090576 -189.15628052 306.64367676 C-188.40388575 299.98498807 -187.60339545 293.34298793 -186.62084961 286.71411133 C-185.20493071 277.00778559 -184.20270285 267.2535521 -183.14428711 257.50317383 C-181.74005914 244.61061266 -180.28913589 231.72620333 -178.72914124 218.85147095 C-177.95075811 212.41986776 -177.19315145 205.9863217 -176.45582581 199.54988098 C-175.96135812 195.2382107 -175.45935151 190.92743231 -174.95678711 186.61669922 C-174.70371832 184.43117999 -174.45379138 182.24529497 -174.20678711 180.05908203 C-173.84023921 176.82195816 -173.46209947 173.58636205 -173.08178711 170.35083008 C-172.97543945 169.38718033 -172.8690918 168.42353058 -172.75952148 167.43067932 C-171.46018241 156.58949702 -168.83450194 145.24389647 -160.62475586 137.46020508 C-151.70831953 130.55550773 -143.27462853 127.99993042 -132.15209961 128.12036133 C-131.16176727 128.12319122 -130.17143494 128.12602112 -129.15109253 128.12893677 C-126.00286535 128.14008913 -122.85492762 128.16518476 -119.70678711 128.19067383 C-117.56616623 128.20071001 -115.42554087 128.20983475 -113.28491211 128.21801758 C-108.05043914 128.24001225 -102.81613381 128.2734405 -97.58178711 128.31567383 C-97.59749756 127.31415283 -97.61320801 126.31263184 -97.62939453 125.28076172 C-97.68471102 121.47681087 -97.71849678 117.67289338 -97.74658203 113.86865234 C-97.76144183 112.23870825 -97.78173547 110.60880241 -97.80810547 108.97900391 C-98.04201257 94.12360999 -96.89753339 79.68002294 -91.45678711 65.69067383 C-91.00565552 64.50985229 -91.00565552 64.50985229 -90.54541016 63.30517578 C-80.55364625 38.15927899 -61.20441717 18.28663821 -36.45141602 7.37670898 C-24.12998593 2.25901076 -13.32494989 -0.04183901 0 0 Z " fill="#1F201F" transform="translate(506.581787109375,265.684326171875)"/>
<path d="M0 0 C2.08460756 0.00314202 4.16776598 -0.02030344 6.25219727 -0.0456543 C33.29454767 -0.17530872 56.46177771 10.58971202 75.41821289 29.31567383 C76.38114258 30.17032227 76.38114258 30.17032227 77.36352539 31.04223633 C92.47813745 44.75083797 102.0711609 67.43600667 104.41821289 87.31567383 C104.54455987 90.53418046 104.53518173 93.74744989 104.51586914 96.96801758 C104.51374672 98.31821739 104.51374672 98.31821739 104.51158142 99.69569397 C104.50601949 102.5482222 104.49347416 105.40066964 104.48071289 108.25317383 C104.47569297 110.19653206 104.47113092 112.13989154 104.46704102 114.08325195 C104.45606255 118.82742333 104.43882442 123.57153492 104.41821289 128.31567383 C104.97007767 128.30679138 105.52194244 128.29790894 106.0905304 128.28875732 C111.88267561 128.19962393 117.67462311 128.13966877 123.46728516 128.09594727 C125.62329026 128.07594692 127.77924193 128.04873759 129.93505859 128.01391602 C133.05067201 127.9648853 136.1655626 127.94258869 139.28149414 127.92504883 C140.23091385 127.90440369 141.18033356 127.88375854 142.15852356 127.86248779 C153.13272198 127.8588844 162.58387765 131.55769663 170.41821289 139.31567383 C177.76670029 148.2560655 179.87115746 157.5669724 181.17993164 168.81176758 C181.33165329 170.04521912 181.48337494 171.27867065 181.63969421 172.54949951 C182.05181675 175.91480747 182.45519371 179.28094433 182.85466766 182.6477623 C183.27781643 186.19653438 183.71199584 189.74395556 184.14526367 193.29150391 C184.77958053 198.49297631 185.41024326 203.69486936 186.03668594 208.89729595 C187.12733095 217.95195785 188.24282465 227.00333528 189.37225533 236.05323601 C189.91779824 240.42577412 190.46137021 244.79855779 191.00524426 249.17130375 C191.43772321 252.64798175 191.87072484 256.12459247 192.30502319 259.6010437 C193.95756313 272.84153816 195.55318518 286.07194936 196.75584412 299.36158752 C197.40203054 306.42260443 198.32275342 313.42577686 199.35571289 320.44067383 C201.02776705 332.17225979 202.42580851 343.91351057 203.69555664 355.69458008 C204.42674806 362.4704213 205.22623281 369.23719794 206.04321289 376.00317383 C206.16639893 377.02443359 206.28958496 378.04569336 206.41650391 379.09790039 C206.5330835 380.06050781 206.64966309 381.02311523 206.76977539 382.01489258 C206.87990967 382.92932129 206.99004395 383.84375 207.10351562 384.78588867 C207.29682087 386.33982887 207.49985186 387.89264219 207.71923828 389.44311523 C208.46126859 394.75204697 208.6016606 399.96665432 208.60571289 405.31567383 C208.61795898 406.16645508 208.63020508 407.01723633 208.64282227 407.89379883 C208.6691887 419.35440945 205.30279517 429.45413223 197.48071289 438.00317383 C186.28041385 448.58436086 172.87331697 451.61812107 157.9460144 451.58982849 C156.56742695 451.59428446 155.18884206 451.59959969 153.81026089 451.60569721 C150.03162723 451.61984478 146.25307595 451.62154112 142.47441959 451.62110031 C138.39516571 451.6227514 134.31594549 451.63582341 130.23670959 451.64729309 C121.32124678 451.67012016 112.40580781 451.67806131 103.49031973 451.68311954 C97.91997645 451.68637938 92.34964007 451.69290361 86.77930069 451.70012093 C71.34657705 451.71968426 55.91385981 451.7360899 40.48112297 451.73899746 C39.49398936 451.73918503 38.50685574 451.7393726 37.48980898 451.73956585 C35.48877819 451.7399321 33.4877474 451.74029579 31.48671661 451.74065696 C30.49344632 451.74083978 29.50017603 451.74102259 28.47680664 451.74121094 C27.48231924 451.74139149 26.48783184 451.74157204 25.46320845 451.74175806 C9.35455858 451.74529853 -6.75395751 451.7723142 -22.862561 451.80970883 C-39.41414417 451.84782325 -55.96566102 451.86715517 -72.51728904 451.86745697 C-81.80513263 451.86804085 -91.09281663 451.87648809 -100.38061905 451.90545464 C-108.29038989 451.93001053 -116.19994295 451.93722311 -124.10974164 451.92220711 C-128.14184075 451.91505524 -132.17351019 451.91582058 -136.20556068 451.93861771 C-139.90459484 451.95933065 -143.60287236 451.95649433 -147.30189942 451.93574286 C-149.25741753 451.93064021 -151.21295371 451.94993271 -153.16837132 451.97040457 C-166.37128429 451.84611167 -177.82378035 447.28454163 -187.58178711 438.31567383 C-198.29226489 425.9710933 -200.4700356 414.31459104 -199.58178711 398.31567383 C-199.21097656 394.75525088 -198.71807763 391.21551834 -198.21850586 387.67114258 C-196.76649541 376.96145145 -195.55804487 366.24023039 -194.44692993 355.490448 C-193.92088608 350.40670126 -193.38387886 345.32411082 -192.84741211 340.24145508 C-192.68744499 338.72389366 -192.68744499 338.72389366 -192.52424622 337.17567444 C-191.52224044 327.69675628 -190.47300973 318.22364082 -189.39428711 308.75317383 C-189.31574493 308.05703979 -189.23720276 307.36090576 -189.15628052 306.64367676 C-188.40388575 299.98498807 -187.60339545 293.34298793 -186.62084961 286.71411133 C-185.20493071 277.00778559 -184.20270285 267.2535521 -183.14428711 257.50317383 C-181.74005914 244.61061266 -180.28913589 231.72620333 -178.72914124 218.85147095 C-177.95075811 212.41986776 -177.19315145 205.9863217 -176.45582581 199.54988098 C-175.96135812 195.2382107 -175.45935151 190.92743231 -174.95678711 186.61669922 C-174.70371832 184.43117999 -174.45379138 182.24529497 -174.20678711 180.05908203 C-173.84023921 176.82195816 -173.46209947 173.58636205 -173.08178711 170.35083008 C-172.97543945 169.38718033 -172.8690918 168.42353058 -172.75952148 167.43067932 C-171.46018241 156.58949702 -168.83450194 145.24389647 -160.62475586 137.46020508 C-151.70831953 130.55550773 -143.27462853 127.99993042 -132.15209961 128.12036133 C-131.16176727 128.12319122 -130.17143494 128.12602112 -129.15109253 128.12893677 C-126.00286535 128.14008913 -122.85492762 128.16518476 -119.70678711 128.19067383 C-117.56616623 128.20071001 -115.42554087 128.20983475 -113.28491211 128.21801758 C-108.05043914 128.24001225 -102.81613381 128.2734405 -97.58178711 128.31567383 C-97.59749756 127.31415283 -97.61320801 126.31263184 -97.62939453 125.28076172 C-97.68471102 121.47681087 -97.71849678 117.67289338 -97.74658203 113.86865234 C-97.76144183 112.23870825 -97.78173547 110.60880241 -97.80810547 108.97900391 C-98.04201257 94.12360999 -96.89753339 79.68002294 -91.45678711 65.69067383 C-91.00565552 64.50985229 -91.00565552 64.50985229 -90.54541016 63.30517578 C-80.55364625 38.15927899 -61.20441717 18.28663821 -36.45141602 7.37670898 C-24.12998593 2.25901076 -13.32494989 -0.04183901 0 0 Z M-144.58178711 158.31567383 C-145.64376794 160.17946901 -145.64376794 160.17946901 -145.84350586 162.26489258 C-145.97289551 163.05814941 -146.10228516 163.85140625 -146.2355957 164.66870117 C-146.40696045 165.97895264 -146.40696045 165.97895264 -146.58178711 167.31567383 C-146.72567871 168.24976074 -146.86957031 169.18384766 -147.01782227 170.14624023 C-147.5150827 173.46925326 -147.95958049 176.79640474 -148.39428711 180.12817383 C-148.5624292 181.40208984 -148.73057129 182.67600586 -148.90380859 183.98852539 C-151.0602406 200.52005634 -152.87380313 217.0939517 -154.72427368 233.66188049 C-155.55429807 241.09031395 -156.40657809 248.51595966 -157.26928711 255.94067383 C-159.34346014 273.84841362 -159.34346014 273.84841362 -161.23022461 291.77661133 C-162.50220374 304.46320538 -163.90114051 317.11365952 -165.58178711 329.75317383 C-167.11514241 341.29353759 -168.39436495 352.83727953 -169.50097656 364.42602539 C-170.38694595 373.63619922 -171.44256608 382.81567568 -172.66796875 391.98706055 C-174.58471103 405.17181563 -174.58471103 405.17181563 -170.92553711 417.59301758 C-167.91818467 421.44837347 -164.17448562 423.78477433 -159.58178711 425.31567383 C-157.76580989 425.40990096 -155.94652868 425.44480711 -154.12810993 425.44710159 C-152.98800002 425.45094274 -151.84789012 425.45478388 -150.67323142 425.45874143 C-149.41508681 425.45787494 -148.1569422 425.45700846 -146.860672 425.45611572 C-145.51497379 425.45869885 -144.16927634 425.46171186 -142.82357997 425.46511912 C-139.11748444 425.47319875 -135.41140827 425.47497923 -131.70530498 425.47571659 C-127.71129706 425.4775655 -123.71729922 425.48511207 -119.72329712 425.49185181 C-110.98561436 425.50544301 -102.24793618 425.51146122 -93.51024461 425.51586246 C-88.05521119 425.51862385 -82.60017954 425.52286104 -77.14514732 425.52736664 C-62.04455711 425.53956089 -46.94396833 425.54985953 -31.8433733 425.55324173 C-30.87658228 425.5534613 -29.90979126 425.55368086 -28.91370354 425.55390708 C-27.94458352 425.55412536 -26.97546351 425.55434364 -25.97697622 425.55456853 C-24.01313388 425.555012 -22.04929155 425.55545856 -20.08544922 425.5559082 C-18.62424516 425.55624035 -18.62424516 425.55624035 -17.13352182 425.5565792 C-1.35107138 425.56052671 14.43133287 425.5779786 30.21376546 425.60126773 C46.41375869 425.6249802 62.61372874 425.63744355 78.8137396 425.63860965 C87.91085246 425.63952653 97.00790516 425.64528196 106.10500145 425.66342926 C113.85211081 425.67882891 121.59914143 425.68395155 129.34626319 425.67569116 C133.29862953 425.67178402 137.25083729 425.67271726 141.20318413 425.6867485 C144.8236198 425.69948379 148.44377769 425.69829334 152.06421296 425.68615779 C153.98979978 425.68327487 155.91539138 425.6951395 157.84094018 425.70757985 C165.10286275 425.66608048 171.6544389 425.45810373 177.47680664 420.59692383 C177.9318457 420.00911133 178.38688477 419.42129883 178.85571289 418.81567383 C179.32879883 418.22786133 179.80188477 417.64004883 180.28930664 417.03442383 C185.6370679 408.89250358 182.23959699 394.94113128 181.07446289 385.79614258 C180.79790175 383.5608954 180.52220808 381.32554075 180.24731445 379.09008789 C180.10781372 377.95970093 179.96831299 376.82931396 179.82458496 375.66467285 C179.20153529 370.52998742 178.6277154 365.39019387 178.05883789 360.24926758 C177.83161388 358.20612818 177.60431782 356.16299679 177.37695312 354.11987305 C177.26181366 353.08441345 177.14667419 352.04895386 177.02804565 350.9821167 C174.65418571 329.68039293 172.0953564 308.40697478 169.40719604 287.14276123 C167.4380001 271.56291058 165.52562642 255.97910306 163.73071289 240.37817383 C163.63042786 239.50729126 163.53014282 238.63640869 163.42681885 237.73913574 C163.03713207 234.3543232 162.64758291 230.96949488 162.25839233 227.58462524 C161.35495036 219.73935718 160.42941859 211.89682924 159.48519897 204.05636597 C159.24237106 202.03759502 159.00174518 200.01855956 158.76123047 197.99951172 C157.9222706 191.06450593 156.96547199 184.16672178 155.82861328 177.27392578 C155.39362067 174.13840793 155.19402532 171.03912091 155.04321289 167.87817383 C154.66083118 162.79987633 153.87876622 160.07284602 150.41821289 156.31567383 C147.58959379 154.60522764 145.50470563 154.0662134 142.21630859 154.07275391 C141.39898758 154.06967728 140.58166656 154.06660065 139.73957825 154.06343079 C138.86653549 154.0706163 137.99349274 154.07780182 137.09399414 154.08520508 C135.74098457 154.08589241 135.74098457 154.08589241 134.36064148 154.08659363 C132.45851319 154.08960992 130.55638723 154.09747758 128.65429688 154.10986328 C125.73111303 154.12817132 122.80824508 154.13037254 119.88500977 154.13012695 C118.0380018 154.13504035 116.19099599 154.14086789 114.34399414 154.14770508 C113.46487869 154.1488179 112.58576324 154.14993073 111.68000793 154.15107727 C107.73306307 153.78915236 107.73306307 153.78915236 104.41821289 155.31567383 C104.29746939 156.81767815 104.23867328 158.32477629 104.20727539 159.83129883 C104.17891602 160.75297852 104.15055664 161.6746582 104.12133789 162.62426758 C104.06967441 164.56939778 104.02528189 166.51473609 103.98852539 168.46020508 C103.68384981 177.58777781 103.68384981 177.58777781 100.41821289 181.31567383 C96.35700456 184.07297683 92.14455514 183.70390908 87.41821289 183.31567383 C84.48071289 182.69067383 84.48071289 182.69067383 82.41821289 181.31567383 C80.41821289 175.31567383 80.41821289 175.31567383 79.41821289 154.31567383 C29.58821289 154.31567383 -20.24178711 154.31567383 -71.58178711 154.31567383 C-71.91178711 161.24567383 -72.24178711 168.17567383 -72.58178711 175.31567383 C-76.29607282 181.50615002 -76.29607282 181.50615002 -80.58178711 183.31567383 C-84.62335057 183.91412035 -87.69568331 183.70093635 -91.45678711 182.06567383 C-94.37858316 179.65948885 -95.41610692 177.60102734 -95.90063477 173.84204102 C-95.93205566 172.94130859 -95.96347656 172.04057617 -95.99584961 171.11254883 C-96.03452148 170.13286133 -96.07319336 169.15317383 -96.11303711 168.14379883 C-96.14397461 167.12801758 -96.17491211 166.11223633 -96.20678711 165.06567383 C-96.24545898 164.03442383 -96.28413086 163.00317383 -96.32397461 161.94067383 C-96.41810385 159.39918443 -96.5037369 156.8576995 -96.58178711 154.31567383 C-102.45331942 154.21655693 -108.32436124 154.14408771 -114.1965332 154.09594727 C-116.19271329 154.07587214 -118.18883486 154.04860594 -120.18481445 154.01391602 C-123.05947331 153.96521726 -125.9333525 153.94266396 -128.80834961 153.92504883 C-129.69608063 153.90440369 -130.58381165 153.88375854 -131.4984436 153.86248779 C-136.98508433 153.86051539 -140.32976766 154.48679529 -144.58178711 158.31567383 Z " fill="#F6F6F5" transform="translate(506.581787109375,265.684326171875)"/>
<path d="M0 0 C1.09828125 -0.01224609 2.1965625 -0.02449219 3.328125 -0.03710938 C22.968935 -0.07243457 39.80156268 8.62947267 53.625 22.1875 C54.39972656 22.92613281 55.17445313 23.66476562 55.97265625 24.42578125 C60.58043765 29.1284055 63.94499338 34.05576683 66.9375 39.875 C67.25090332 40.47320557 67.56430664 41.07141113 67.88720703 41.68774414 C77.55224097 61.64544516 74.625 79.53841381 74.625 102.1875 C25.455 102.1875 -23.715 102.1875 -74.375 102.1875 C-74.375 54.8497555 -74.375 54.8497555 -67.625 42 C-67.27356934 41.31856934 -66.92213867 40.63713867 -66.56005859 39.93505859 C-63.69847255 34.52525532 -60.50721994 29.72182001 -56.375 25.1875 C-55.65957031 24.38054687 -54.94414062 23.57359375 -54.20703125 22.7421875 C-39.35150599 6.89306267 -21.58357371 0.01257784 0 0 Z " fill="#1F1F1F" transform="translate(510.375,291.8125)"/>
<path d="M0 0 C0.99 0.33 1.98 0.66 3 1 C-2.94 6.94 -8.88 12.88 -15 19 C-15.66 18.34 -16.32 17.68 -17 17 C-11.39 11.39 -5.78 5.78 0 0 Z " fill="#242625" transform="translate(240,220)"/>
</svg>
